<?xml version="1.0" standalone="no"?>
<!DOCTYPE svg PUBLIC "-//W3C//DTD SVG 20010904//EN"
 "http://www.w3.org/TR/2001/REC-SVG-20010904/DTD/svg10.dtd">
<svg version="1.0" xmlns="http://www.w3.org/2000/svg"
 width="700.000000pt" height="700.000000pt" viewBox="0 0 700.000000 700.000000"
 preserveAspectRatio="xMidYMid meet">
<metadata>
Created by potrace 1.11, written by Peter Selinger 2001-2013
</metadata>
<g transform="translate(0.000000,700.000000) scale(0.100000,-0.100000)"
fill="#000000" stroke="none">
<path d="M3259 6926 c-2 -3 -40 -7 -84 -11 -44 -3 -96 -8 -115 -11 -19 -3 -48
-7 -65 -9 -33 -5 -176 -31 -215 -39 -14 -3 -34 -8 -45 -10 -47 -9 -157 -40
-250 -68 -686 -210 -1308 -651 -1739 -1233 -36 -49 -70 -94 -74 -100 -4 -5
-20 -30 -35 -54 -236 -362 -398 -744 -486 -1146 -31 -139 -34 -159 -46 -245
-3 -25 -8 -56 -10 -70 -28 -186 -28 -660 1 -867 9 -71 15 -109 20 -138 210
-1201 1021 -2189 2159 -2630 223 -87 522 -165 725 -190 25 -3 56 -7 70 -10
135 -27 707 -28 845 -1 11 2 43 7 70 10 98 13 245 42 405 81 43 11 156 47 245
78 931 328 1677 1055 2040 1987 48 122 119 336 130 390 2 8 8 33 14 55 5 22
13 55 16 74 3 19 8 37 10 41 4 7 42 222 49 280 25 208 25 207 32 417 l7 192
-214 3 c-118 2 -358 1 -535 -2 l-321 -5 0 -342 -1 -343 130 0 130 0 -7 -32
c-34 -169 -107 -402 -175 -553 -71 -160 -149 -299 -247 -440 -127 -184 -322
-401 -458 -510 -28 -22 -54 -45 -60 -51 -19 -21 -131 -102 -232 -167 -156
-102 -354 -201 -512 -258 -124 -45 -323 -103 -386 -113 -16 -2 -70 -11 -120
-20 -49 -9 -133 -20 -185 -25 -98 -9 -465 -7 -510 2 -14 3 -52 9 -84 12 -179
18 -501 104 -663 176 -126 56 -255 120 -317 157 -37 23 -70 42 -72 42 -10 0
-178 120 -264 188 -103 82 -286 261 -366 357 -239 285 -412 605 -518 955 -28
94 -71 281 -80 350 -4 25 -8 56 -10 70 -25 142 -25 549 -1 690 2 14 11 68 20
120 59 353 204 715 408 1020 228 342 541 633 907 843 213 122 526 240 760 286
87 18 95 19 147 27 26 3 57 8 68 11 113 22 545 21 672 -1 10 -2 34 -6 53 -10
19 -3 53 -8 75 -11 60 -7 268 -60 370 -93 283 -92 577 -250 815 -437 36 -28
70 -54 77 -58 7 -5 77 72 188 205 98 117 198 237 223 266 58 69 82 99 82 105
0 3 -35 33 -77 67 -43 33 -86 68 -96 76 -10 8 -71 50 -135 93 -414 276 -860
454 -1342 535 -19 3 -45 8 -57 10 -12 3 -53 8 -90 11 -37 4 -79 9 -93 12 -30
7 -565 15 -571 9z"/>
<path d="M3397 5624 c-1 -1 -38 -4 -82 -8 -44 -3 -91 -8 -105 -10 -97 -14
-122 -19 -180 -32 -212 -47 -508 -167 -645 -260 -20 -13 -38 -24 -41 -24 -7 0
-175 -122 -215 -156 -151 -129 -331 -330 -428 -479 -128 -197 -226 -415 -280
-628 -55 -212 -66 -303 -66 -542 0 -236 4 -278 39 -461 58 -294 216 -629 423
-892 151 -191 389 -397 603 -521 206 -120 498 -227 695 -256 22 -4 47 -8 55
-10 41 -11 181 -20 325 -20 170 0 247 6 390 30 160 26 372 96 547 180 l72 34
109 -147 c60 -81 113 -146 117 -145 18 5 570 417 570 426 0 4 -33 52 -73 105
-40 53 -89 120 -110 149 l-38 52 77 93 c85 101 199 273 256 383 71 137 156
367 184 496 22 102 35 181 40 237 3 37 7 73 10 81 6 18 5 291 -1 356 -5 55
-13 119 -19 150 -2 11 -7 40 -11 65 -4 25 -9 55 -11 66 -2 12 -15 62 -29 110
-79 272 -191 499 -358 724 -131 176 -384 409 -572 528 -147 93 -376 191 -610
262 -39 12 -244 48 -320 56 -54 6 -312 13 -318 8z m279 -707 c5 -2 35 -8 67
-11 88 -11 251 -62 362 -115 87 -41 225 -123 262 -156 140 -123 181 -164 241
-240 92 -116 125 -167 183 -290 95 -202 138 -403 133 -630 -1 -77 -5 -153 -9
-170 -3 -16 -10 -55 -16 -85 -82 -429 -381 -813 -789 -1010 -319 -154 -710
-178 -1057 -64 -121 39 -236 95 -332 159 -24 17 -51 35 -60 40 -9 6 -18 12
-21 15 -3 3 -34 29 -69 59 -101 86 -230 233 -280 320 -89 154 -164 343 -190
481 -21 114 -24 138 -26 260 -6 421 166 811 483 1090 215 190 501 319 762 346
36 3 67 8 69 10 5 5 278 -3 287 -9z"/>
</g>
</svg>
